<svg width="50" height="52" viewBox="0 0 50 52" fill="none" xmlns="http://www.w3.org/2000/svg">
<path d="M34.1143 6.91479C36.5295 6.92216 38.8439 7.90532 40.5517 9.64957C42.2596 11.3938 43.2223 13.7574 43.2295 16.2241V34.8408C43.2223 37.3076 42.2596 39.6711 40.5517 41.4154C38.8439 43.1596 36.5295 44.1428 34.1143 44.1502H15.8857C13.4705 44.1428 11.1561 43.1596 9.44827 41.4154C7.74039 39.6711 6.77772 37.3076 6.77051 34.8408V16.2241C6.77772 13.7574 7.74039 11.3938 9.44827 9.64957C11.1561 7.90532 13.4705 6.92216 15.8857 6.91479H34.1143ZM34.1143 3.19165H15.8857C8.86719 3.19165 3.125 9.05612 3.125 16.2241V34.8408C3.125 42.0088 8.86719 47.8733 15.8857 47.8733H34.1143C41.1328 47.8733 46.875 42.0088 46.875 34.8408V16.2241C46.875 9.05612 41.1328 3.19165 34.1143 3.19165Z" fill="#1E1E1E"/>
<path d="M36.8486 16.2241C36.3078 16.2241 35.7792 16.0603 35.3295 15.7535C34.8798 15.4466 34.5294 15.0105 34.3224 14.5002C34.1154 13.9899 34.0613 13.4284 34.1668 12.8867C34.2723 12.345 34.5327 11.8474 34.9151 11.4569C35.2976 11.0663 35.7848 10.8003 36.3152 10.6926C36.8456 10.5848 37.3954 10.6401 37.895 10.8515C38.3947 11.0629 38.8217 11.4208 39.1222 11.88C39.4226 12.3393 39.583 12.8792 39.583 13.4315C39.5838 13.7985 39.5136 14.162 39.3764 14.5011C39.2393 14.8403 39.0379 15.1485 38.7839 15.4079C38.5298 15.6674 38.228 15.8731 37.8959 16.0132C37.5639 16.1532 37.2079 16.2249 36.8486 16.2241ZM25 18.0852C26.4422 18.0852 27.8521 18.522 29.0512 19.3403C30.2504 20.1586 31.185 21.3217 31.7369 22.6825C32.2888 24.0433 32.4332 25.5407 32.1519 26.9854C31.8705 28.43 31.176 29.757 30.1562 30.7985C29.1364 31.84 27.8371 32.5493 26.4226 32.8366C25.0081 33.124 23.5419 32.9765 22.2095 32.4129C20.877 31.8492 19.7382 30.8947 18.9369 29.67C18.1357 28.4453 17.708 27.0054 17.708 25.5325C17.7101 23.558 18.479 21.665 19.8461 20.2688C21.2131 18.8726 23.0667 18.0873 25 18.0852ZM25 14.3621C22.8368 14.3621 20.7221 15.0172 18.9235 16.2446C17.1248 17.472 15.7229 19.2166 14.8951 21.2577C14.0672 23.2989 13.8506 25.5449 14.2727 27.7117C14.6947 29.8786 15.7364 31.8689 17.266 33.4311C18.7957 34.9934 20.7445 36.0572 22.8662 36.4883C24.9879 36.9193 27.187 36.6981 29.1856 35.8526C31.1842 35.0071 32.8924 33.5754 34.0942 31.7384C35.296 29.9015 35.9375 27.7418 35.9375 25.5325C35.9375 22.5699 34.7852 19.7287 32.734 17.6338C30.6828 15.5389 27.9008 14.3621 25 14.3621Z" fill="#1E1E1E"/>
</svg>
